{"title":"Beautiful Creatures (2013) 1st CAM [READ INFO]","uid":8177717,"size":912838320,"categoryP":"video","categoryS":"movies","magnet":"?xt=urn:btih:c18d65c0967c075432281abc14253f02e4daa324&amp;dn=Beautiful+Creatures+%282013%29+1st+CAM+%5BREAD+INFO%5D&amp;tr=udp%3A%2F%2Ftracker.openbittorrent.com%3A80&amp;tr=udp%3A%2F%2Fopen.demonii.com%3A1337&amp;tr=udp%3A%2F%2Ftracker.coppersurfer.tk%3A6969&amp;tr=udp%3A%2F%2Fexodus.desync.com%3A6969","seeders":0,"leechers":1,"uploader":"xxxlavalxxx","files":1,"time":1361562637,"description":" &lt;a href=&quot;http://www.imdb.com/title/tt1559547/&quot; rel=&quot;nofollow&quot; target=&quot;_NEW&quot;&gt;http://www.imdb.com/title/tt1559547/&lt;/a&gt;\n\n\n\nPlot:Ethan longs to escape his small Southern town. He meets a mysterious new girl, Lena. Together, they uncover dark secrets about their respective families, their history and their town. \n\n\n\nDirector:\n Richard LaGravenese\n\nWriters:\n Richard LaGravenese (screenplay), Kami Garcia (novel)\n\nStars:\n Alice Englert, Viola Davis, Emma Thompson\n\nGenres:\n Drama | Fantasy | Romance \n\nCountry:\nUSA \n\n\n\n\nComplete name                            : Beautiful Creatures (2013) 1st CAM [READ INFO].avi\nFormat                                   : AVI\nFormat/Info                              : Audio Video Interleave\nFile size                                : 871 MiB\nDuration                                 : 1h 57mn\nOverall bit rate                         : 1 039 Kbps\nWriting application                      : Lavf52.84.0\n\nVideo\nID                                       : 0\nFormat                                   : MPEG-4 Visual\nCodec ID                                 : FMP4\nDuration                                 : 1h 57mn\nBit rate                                 : 899 Kbps\nWidth                                    : 640 pixels\nHeight                                   : 256 pixels\nDisplay aspect ratio                     : 2.500\nFrame rate                               : 20.000 fps\nColor space                              : YUV\nChroma subsampling                       : 4:2:0\nCompression mode                         : Lossy\nBits/(Pixel*Frame)                       : 0.274\nStream size                              : 753 MiB (87%)\n\nAudio\nID                                       : 1\nFormat                                   : MPEG Audio\nFormat version                           : Version 1\nFormat profile                           : Layer 3\nMode                                     : Joint stereo\nMode extension                           : MS Stereo\nCodec ID                                 : 55\nCodec ID/Hint                            : MP3\nDuration                                 : 1h 57mn\nBit rate mode                            : Constant\nBit rate                                 : 128 Kbps\nChannel(s)                               : 2 channels\nSampling rate                            : 48.0 KHz\nCompression mode                         : Lossy\nStream size                              : 107 MiB (12%)\nAlignment                                : Aligned on interleaves\nInterleave, duration                     : 24 ms (0.48 video frame)\n\n\n &lt;a href=&quot;\nhttp://bayimg.com/GAjjJAAeN&quot; rel=&quot;nofollow&quot; target=&quot;_NEW&quot;&gt;\nhttp://bayimg.com/GAjjJAAeN&lt;/a&gt;\n &lt;a href=&quot;\nhttp://bayimg.com/gAJjkAaEn&quot; rel=&quot;nofollow&quot; target=&quot;_NEW&quot;&gt;\nhttp://bayimg.com/gAJjkAaEn&lt;/a&gt;\n &lt;a href=&quot;\nhttp://bayimg.com/gaJJMAaen&quot; rel=&quot;nofollow&quot; target=&quot;_NEW&quot;&gt;\nhttp://bayimg.com/gaJJMAaen&lt;/a&gt;","torrent":{"xt":"urn:btih:c18d65c0967c075432281abc14253f02e4daa324","amp;dn":"Beautiful+Creatures+%282013%29+1st+CAM+%5BREAD+INFO%5D","amp;tr":["udp%3A%2F%2Ftracker.openbittorrent.com%3A80","udp%3A%2F%2Fopen.demonii.com%3A1337","udp%3A%2F%2Ftracker.coppersurfer.tk%3A6969","udp%3A%2F%2Fexodus.desync.com%3A6969"],"infoHash":"c18d65c0967c075432281abc14253f02e4daa324","infoHashBuffer":{"type":"Buffer","data":[193,141,101,192,150,124,7,84,50,40,26,188,20,37,63,2,228,218,163,36]},"announce":[],"urlList":[]}}